# xmcd
#
# Track frame offsets:
#	150
#	20248
#	38667
#	60701
#	77591
#	93248
#	111062
#	129446
#	149763
#	168305
#	185399
#	205652
#
# Disc length: 3141 seconds
#
# Revision: 0
# Processed by: cddbd v1.5.2PL0 Copyright (c) Steve Scherf et al.
# Submitted via: audiograbber 1.83.01
#
DISCID=9f0c430c
DTITLE=Kadavar - Berlin
DYEAR=2015
DGENRE=Rock
TTITLE0=Lord Of The Sky
TTITLE1=Last Living Dinosaur
TTITLE2=Thousand Miles Away From Home
TTITLE3=Filthy Illusion
TTITLE4=Pale Blue Eyes
TTITLE5=Stolen Dreams
TTITLE6=The Old Man
TTITLE7=Spanish Wild Rose
TTITLE8=See The World With Your Own Eyes
TTITLE9=Circles In My Mind
TTITLE10=Into The Night
TTITLE11=Reich der Träume
EXTD=
EXTT0=
EXTT1=
EXTT2=
EXTT3=
EXTT4=
EXTT5=
EXTT6=
EXTT7=
EXTT8=
EXTT9=
EXTT10=
EXTT11=
PLAYORDER=
